#!OML:ASF H:\Martial Arts Walks\Project 1\Capture day 1\Session 1\male.ASF
:FULLY-SPECIFIED
:DEGREES
4390
root -1.93765 14.7027 5.32436 -523.881 48.057 -524.942
lowerback 17.8815 3.12449 1.12578
upperback -1.24573 4.84388 2.95758
thorax -11.6235 2.36168 1.27463
lowerneck -2.74809 -3.96277 -3.41321
upperneck -0.130553 -5.20057 4.02367
head 0.629706 -2.56579 1.75087
rclavicle -1.10127e-013 -1.11319e-014
rhumerus 22.2886 2.5933 -18.2849
rradius 86.7611
rwrist -24.986
rhand -10.0128 -401.831
rfingers 7.12502
rthumb 15.9713 1728.81
lclavicle -1.10127e-013 -1.11319e-014
lhumerus -209.038 226.228 -82.4887
lradius 109.41
lwrist 13.7337
lhand -5.72297 740.122
lfingers 7.12502
lthumb 20.0986 1129.1
rfemur -5.68981 -4.4435 6.54485
rtibia 57.1165
rfoot 10.1785 -4.46357
rtoes 32.4467
lfemur -62.5436 27.5389 -14.1582
ltibia 68.5257
lfoot -14.7723 24.0977
ltoes 9.95244
4391
root -1.84291 14.7664 5.24362 -524.865 44.8877 -525.852
lowerback 17.5372 3.42441 0.866773
upperback -1.25342 5.17119 2.90734
thorax -11.4598 2.53244 1.2928
lowerneck -2.79553 -3.934 -3.39011
upperneck -0.159886 -5.15943 3.99526
head 0.625373 -2.54445 1.73786
rclavicle -3.84648e-014 -4.37326e-014
rhumerus 21.466 5.09862 -17.9899
rradius 86.5229
rwrist -25.0082
rhand -10.3612 -402.81
rfingers 7.12502
rthumb 15.6358 1727.8
lclavicle -3.84648e-014 -4.37326e-014
lhumerus -211.855 226.569 -80.5105
lradius 109.005
lwrist 14.319
lhand -3.74209 739.212
lfingers 7.12502
lthumb 22.0016 1127.98
rfemur -5.0189 -2.89 7.81083
rtibia 57.9987
rfoot 14.1143 -4.2241
rtoes 36.3868
lfemur -62.6871 26.8029 -15.4268
ltibia 67.8302
lfoot -15.0193 22.0364
ltoes 9.54621
4392
root -1.74361 14.8316 5.15047 -525.729 41.6485 -526.606
lowerback 17.1724 3.67299 0.640115
upperback -1.24863 5.44421 2.8929
thorax -11.2717 2.67835 1.35094
lowerneck -2.97513 -3.91676 -3.41445
upperneck 0.0142421 -5.13466 3.95352
head 0.708911 -2.53021 1.72429
rclavicle 8.43344e-014 -1.59028e-014
rhumerus 20.7414 7.57485 -18.3097
rradius 86.0053
rwrist -24.6817
rhand -9.93239 -402.243
rfingers 7.12502
rthumb 16.0487 1728.4
lclavicle 8.43344e-014 -1.59028e-014
lhumerus -214.45 226.721 -78.7098
lradius 108.64
lwrist 15.0176
lhand -2.33278 737.982
lfingers 7.12502
lthumb 23.3542 1126.59
rfemur -4.64379 -1.85569 9.09634
rtibia 59.079
rfoot 17.4343 -4.0767
rtoes 39.1346
lfemur -62.657 25.9793 -16.5407
ltibia 67.2145
lfoot -15.6144 19.8574
ltoes 9.35506
4393
root -1.6474 14.8927 5.04422 -526.563 38.4143 -527.357
lowerback 16.7683 3.91594 0.498708
upperback -1.24731 5.721 2.82783
thorax -11.0526 2.81877 1.31027
lowerneck -3.00225 -3.98505 -3.45495
upperneck 0.174573 -5.22832 3.92066
head 0.767597 -2.57722 1.71696
rclavicle 2.79292e-014 9.93923e-015
rhumerus 19.7548 10.087 -18.9669
rradius 85.5683
rwrist -24.4231
rhand -10.3888 -402.237
rfingers 7.12502
rthumb 15.6092 1728.37
lclavicle 2.79292e-014 9.93923e-015
lhumerus -217.012 227.011 -76.8823
lradius 108.344
lwrist 16.2755
lhand -2.14783 736.47
lfingers 7.12502
lthumb 23.5316 1125.05
rfemur -4.60501 -1.19625 10.291
rtibia 60.3301
rfoot 19.3385 -3.63203
rtoes 39.897
lfemur -62.4669 24.981 -17.5384
ltibia 66.6602
lfoot -16.1434 18.4359
ltoes 8.89616
4394
root -1.55414 14.938 4.93542 -527.397 35.082 -528.154
lowerback 16.4956 4.07115 0.344452
upperback -1.30903 5.88358 2.76078
thorax -10.978 2.90357 1.29688
lowerneck -2.99751 -4.07189 -3.63344
upperneck 0.472432 -5.3475 3.87489
head 0.869169 -2.63854 1.72848
rclavicle -5.03422e-014 -3.12092e-014
rhumerus 18.9045 12.6003 -20.0221
rradius 84.7552
rwrist -24.1583
rhand -10.4279 -402.02
rfingers 7.12502
rthumb 15.5715 1728.59
lclavicle -5.03422e-014 -3.12092e-014
lhumerus -219.345 227.062 -75.2482
lradius 108.099
lwrist 16.7602
lhand -1.78001 735.507
lfingers 7.12502
lthumb 23.8844 1124.04
rfemur -4.78626 -1.04916 11.2903
rtibia 61.7311
rfoot 18.2053 -2.06057
rtoes 38.0539
lfemur -62.149 23.7287 -18.4619
ltibia 66.1729
lfoot -16.2417 18.1139
ltoes 9.00798
4395
root -1.4674 14.9745 4.81643 -528.323 31.8147 -528.89
lowerback 16.3999 4.13972 0.242747
upperback -1.24981 5.94441 2.69463
thorax -10.8612 2.93787 1.27425
lowerneck -3.32126 -4.13248 -3.71896
upperneck 0.911614 -5.42411 3.7025
head 1.06324 -2.67658 1.67655
rclavicle -3.60794e-014 2.36554e-014
rhumerus 18.34 15.022 -21.3735
rradius 83.7315
rwrist -24.1145
rhand -10.9191 -402.531
rfingers 7.12502
rthumb 15.0984 1728.04
lclavicle -3.60794e-014 2.36554e-014
lhumerus -221.382 226.762 -73.8151
lradius 107.993
lwrist 16.9444
lhand -1.9002 735.513
lfingers 7.12502
lthumb 23.7691 1124.06
rfemur -5.07829 -1.30465 12.0661
rtibia 63.1672
rfoot 14.5053 1.36879
rtoes 31.3052
lfemur -61.5129 22.4219 -19.2332
ltibia 65.7152
lfoot -15.4663 19.358
ltoes 9.42774
4396
root -1.38617 15.0066 4.69107 -529.241 28.526 -529.704
lowerback 16.4573 4.17651 0.120222
upperback -1.24208 5.95729 2.59282
thorax -10.8867 2.94625 1.22509
lowerneck -3.59071 -4.18297 -3.82576
upperneck 1.31679 -5.4852 3.55235
head 1.23914 -2.70801 1.63728
rclavicle 6.54995e-014 2.40529e-014
rhumerus 17.707 17.4464 -22.8502
rradius 82.6303
rwrist -24.2361
rhand -11.4048 -403.115
rfingers 7.12502
rthumb 14.6305 1727.42
lclavicle 6.54995e-014 2.40529e-014
lhumerus -223.191 226.489 -72.5139
lradius 108.016
lwrist 17.0863
lhand -2.78511 736.125
lfingers 7.12502
lthumb 22.9202 1124.78
rfemur -5.7989 -1.7546 12.6637
rtibia 64.6255
rfoot 10.8581 4.25622
rtoes 23.0721
lfemur -60.8006 20.9753 -20.072
ltibia 65.2628
lfoot -14.2355 20.9017
ltoes 9.85159
4397
root -1.31176 15.0419 4.56282 -530.207 25.296 -530.587
lowerback 16.626 4.16815 -0.0381112
upperback -1.17436 5.90227 2.48052
thorax -10.9092 2.92404 1.19654
lowerneck -3.72439 -4.19029 -3.97029
upperneck 1.49287 -5.48468 3.42905
head 1.31899 -2.70988 1.61917
rclavicle -2.16178e-014 -2.10712e-014
rhumerus 17.1222 19.8687 -24.3535
rradius 81.5504
rwrist -24.5156
rhand -11.7919 -403.629
rfingers 7.12502
rthumb 14.2575 1726.88
lclavicle -2.16178e-014 -2.10712e-014
lhumerus -224.489 226.041 -71.6009
lradius 108.099
lwrist 17.3349
lhand -2.20191 737.368
lfingers 7.12502
lthumb 23.4797 1125.96
rfemur -6.82724 -2.41968 13.0047
rtibia 66.087
rfoot 8.10252 5.3826
rtoes 19.8314
lfemur -59.909 19.539 -21.0143
ltibia 64.7495
lfoot -13.5842 21.4252
ltoes 10.589
4398
root -1.2432 15.0717 4.42883 -531.122 22.2737 -531.358
lowerback 16.9239 4.20331 -0.126793
upperback -1.09068 5.92746 2.40586
thorax -10.9881 2.93731 1.14026
lowerneck -3.91617 -4.21608 -4.16635
upperneck 1.63548 -5.50204 3.31753
head 1.40151 -2.7204 1.6125
rclavicle -8.78628e-014 -5.96354e-016
rhumerus 16.8013 22.0797 -26.1706
rradius 80.0683
rwrist -24.6481
rhand -11.9683 -404.051
rfingers 7.12502
rthumb 14.0876 1726.45
lclavicle -8.78628e-014 -5.96354e-016
lhumerus -225.53 225.742 -70.7336
lradius 107.939
lwrist 16.5804
lhand -3.65655 737.005
lfingers 7.12502
lthumb 22.0837 1125.76
rfemur -8.08368 -3.14533 13.2156
rtibia 67.5259
rfoot 6.43726 4.68878
rtoes 21.4181
lfemur -58.9306 18.35 -21.9758
ltibia 64.2043
lfoot -12.8783 20.9032
ltoes 9.77863
4399
root -1.18238 15.1019 4.28839 -531.912 19.3415 -532.047
lowerback 17.1566 4.22962 -0.108403
upperback -0.963369 5.96497 2.34593
thorax -10.971 2.95311 1.04264
lowerneck -4.10437 -4.26828 -4.16952
upperneck 1.60319 -5.55408 3.03928
head 1.41571 -2.74887 1.51876
rclavicle -3.72224e-014 2.38542e-014
rhumerus 16.3121 24.2337 -27.9252
rradius 78.8939
rwrist -24.9099
rhand -12.0234 -404.877
rfingers 7.12502
rthumb 14.0345 1725.62
lclavicle -3.72224e-014 2.38542e-014
lhumerus -226.16 225.549 -70.0616
lradius 107.649
lwrist 15.3194
lhand -4.8364 736.21
lfingers 7.12502
lthumb 20.9506 1125.1
rfemur -9.68517 -3.96018 13.3242
rtibia 68.9501
rfoot 4.29402 3.05166
rtoes 23.7532
lfemur -57.981 17.2493 -22.9271
ltibia 63.6235
lfoot -12.1509 19.582
ltoes 8.97004
